<svg width="16" height="16" viewBox="0 0 16 16" fill="none" xmlns="http://www.w3.org/2000/svg">
<path d="M3.7456 0.892467C3.42137 0.681553 3.03192 0.617806 2.66663 0.704612L9.08606 7.16699L11.1666 5.07252L3.7456 0.892467Z" fill="#99A1B0"/>
<path d="M1.62205 1.33398C1.43879 1.56995 1.33331 1.85968 1.33331 2.16617V13.5018C1.33331 13.8083 1.43881 14.098 1.62205 14.334L8.33331 7.83401L1.62205 1.33398Z" fill="#99A1B0"/>
<path d="M13.5958 6.25707L11.669 5.33398L9.33331 7.33394L11.6691 9.33398L13.5961 8.41082C14.0577 8.18935 14.3333 7.78683 14.3333 7.33394C14.3333 6.88104 14.0577 6.47854 13.5958 6.25707Z" fill="#99A1B0"/>
<path d="M9.0859 8L2.66663 14.4616C2.77187 14.4866 2.87898 14.5 2.98609 14.5C3.25079 14.5 3.51458 14.4242 3.74528 14.2742L11.1666 10.0944L9.0859 8Z" fill="#99A1B0"/>
</svg>
