<svg width="16" height="16" viewBox="0 0 16 16" fill="none" xmlns="http://www.w3.org/2000/svg">
<path d="M11.7867 14.271C11.4764 14.5754 11.0737 14.7679 10.6419 14.8182C10.2102 14.8685 9.77401 14.7738 9.40202 14.549C9.00893 14.366 8.5806 14.2712 8.14702 14.2712C7.71344 14.2712 7.2851 14.366 6.89202 14.549C5.78068 15.037 5.19068 14.895 4.52135 14.271C0.742685 10.313 1.30068 4.28433 5.59535 4.05766C6.63668 4.11433 7.36602 4.64366 7.98002 4.68766C8.89202 4.49899 9.76468 3.95833 10.7407 4.02966C11.2595 4.04489 11.7677 4.18057 12.225 4.42597C12.6824 4.67138 13.0765 5.01978 13.376 5.44366C12.87 5.73788 12.4562 6.16765 12.1813 6.6845C11.9065 7.20135 11.7815 7.78472 11.8206 8.36879C11.8596 8.95287 12.061 9.51443 12.4022 9.99012C12.7434 10.4658 13.2106 10.8367 13.7514 11.061C13.3622 12.2758 12.6881 13.3798 11.7854 14.281L11.7867 14.271ZM7.89602 4.01499C7.85698 3.19119 8.13644 2.38395 8.67648 1.76063C9.21653 1.1373 9.97572 0.745698 10.7967 0.666992C11.018 2.69566 8.98402 4.21366 7.89602 4.01499Z" fill="#99A1B0"/>
</svg>
