<svg width="16" height="16" viewBox="0 0 16 16" fill="none" xmlns="http://www.w3.org/2000/svg">
<path d="M13.25 14C11.8945 14 10.5472 13.6667 9.20835 13C7.86946 12.3333 6.66668 11.4667 5.60001 10.4C4.53335 9.33333 3.66668 8.13056 3.00002 6.79167C2.33335 5.45278 2.00002 4.10556 2.00002 2.75C2.00002 2.53889 2.07224 2.36111 2.21668 2.21667C2.36113 2.07222 2.5389 2 2.75002 2H5.08335C5.2389 2 5.37502 2.05278 5.49168 2.15833C5.60835 2.26389 5.68335 2.40556 5.71668 2.58333L6.16668 4.68333C6.1889 4.83889 6.18613 4.98056 6.15835 5.10833C6.13057 5.23611 6.07224 5.34444 5.98335 5.43333L4.31668 7.11667C4.9389 8.15 5.63613 9.05 6.40835 9.81667C7.18057 10.5833 8.05557 11.2333 9.03335 11.7667L10.6167 10.1333C10.7278 10.0111 10.8556 9.925 11 9.875C11.1445 9.825 11.2889 9.81667 11.4333 9.85L13.4167 10.2833C13.5833 10.3167 13.7222 10.4 13.8333 10.5333C13.9445 10.6667 14 10.8222 14 11V13.25C14 13.4611 13.9278 13.6389 13.7833 13.7833C13.6389 13.9278 13.4611 14 13.25 14Z" fill="#42526E"/>
</svg>
